<svg xmlns="http://www.w3.org/2000/svg" fill="none" viewBox="0 0 24 24" stroke-width="1.5" stroke="currentColor" aria-hidden="true" data-slot="icon" class="size-6">
  <path d="M 20.469999 6.619999 L 12.57 2.18 C 12.41 2.059999 12.21 2 12 2 C 11.79 2 11.59 2.059999 11.43 2.18 L 3.53 6.619999 C 3.21 6.790001 3 7.119999 3 7.5 L 3 16.5 C 3 16.879999 3.21 17.209999 3.53 17.379999 L 11.43 21.82 C 11.59 21.940001 11.79 22 12 22 C 12.21 22 12.41 21.940001 12.57 21.82 L 20.469999 17.379999 C 20.790001 17.209999 21 16.879999 21 16.5 L 21 7.5 C 21 7.119999 20.790001 6.790001 20.469999 6.619999 M 17.5 10.84"></path>
</svg>